<svg xmlns="http://www.w3.org/2000/svg" width="25" height="24" viewBox="0 0 25 24" fill="none"><rect x="2.43359" y="2.25" width="19.5" height="19.5" rx="8" fill="white"></rect><path fill-rule="evenodd" clip-rule="evenodd" d="M12.1836 2.25C6.79882 2.25 2.43359 6.61522 2.43359 12C2.43359 17.3848 6.79882 21.75 12.1836 21.75C17.5684 21.75 21.9336 17.3848 21.9336 12C21.9336 6.61522 17.5684 2.25 12.1836 2.25ZM16.4639 12.5303C16.6046 12.3897 16.6836 12.1989 16.6836 12C16.6836 11.8011 16.6046 11.6103 16.4639 11.4697L13.4639 8.46967C13.171 8.17678 12.6962 8.17678 12.4033 8.46967C12.1104 8.76256 12.1104 9.23744 12.4033 9.53033L14.1229 11.25L8.43359 11.25C8.01938 11.25 7.68359 11.5858 7.68359 12C7.68359 12.4142 8.01938 12.75 8.43359 12.75L14.1229 12.75L12.4033 14.4697C12.1104 14.7626 12.1104 15.2374 12.4033 15.5303C12.6962 15.8232 13.171 15.8232 13.4639 15.5303L16.4639 12.5303Z" fill="#1191ed"></path></svg>