<?xml version="1.0" encoding="UTF-8"?>
<svg width="924px" height="924px" viewBox="0 0 924 924" version="1.1" xmlns="http://www.w3.org/2000/svg" xmlns:xlink="http://www.w3.org/1999/xlink">
    <title>13A460D7-0138-4BD3-9FE9-A8A56CE33FBA</title>
    <g id="Page-1" stroke="none" stroke-width="1" fill="none" fill-rule="evenodd" stroke-linecap="round" stroke-linejoin="round">
        <g id="FIntech-LP-||-Code-Brew-Labs" transform="translate(-498.000000, -5133.000000)">
            <g id="Group-11" transform="translate(501.000000, 5136.000000)">
                <path d="M459,809 C652.299662,809 809,652.299662 809,459 C809,265.700338 652.299662,109 459,109 C265.700338,109 109,265.700338 109,459 C109,652.299662 265.700338,809 459,809 Z" id="Oval" stroke="#05a1f4a3" stroke-width="10" stroke-dasharray="0,30"></path>
                <path d="M459,918 C712.4987,918 918,712.4987 918,459 C918,205.5013 712.4987,0 459,0 C205.5013,0 0,205.5013 0,459 C0,712.4987 205.5013,918 459,918 Z" id="Oval" stroke="#05a1f4" stroke-width="5" stroke-dasharray="0,42"></path>
                <path d="M459,864 C682.675324,864 864,682.675324 864,459 C864,235.324676 682.675324,54 459,54 C235.324676,54 54,235.324676 54,459 C54,682.675324 235.324676,864 459,864 Z" id="Oval" stroke="#05a1f4" stroke-width="5" stroke-dasharray="0,41"></path>
            </g>
        </g>
    </g>
</svg>