<svg width="28" height="28" viewBox="0 0 28 28" fill="none" xmlns="http://www.w3.org/2000/svg">
<path d="M3.46 25.2057L7.688 23.7087L8.428 24.1015C10.128 25.0019 12.018 25.4818 14 25.4818C20.62 25.4818 26 19.948 26 13.8026C26 7.65727 20.62 2.12348 14 2.12348C7.38 2.12348 2 7.65727 2 13.8026C2 16.096 2.78 18.4233 4.214 20.413L4.904 21.3686L3.458 25.2036L3.46 25.2057ZM2.046 27.945C1.86501 28.0094 1.67045 28.0174 1.4853 27.9682C1.30015 27.9189 1.13214 27.8144 1.00111 27.6671C0.870092 27.5197 0.781532 27.3356 0.745895 27.1365C0.710258 26.9374 0.729032 26.7316 0.8 26.5435L2.624 21.702C0.96 19.3874 0 16.6184 0 13.8026C0 6.76541 6 0 14 0C22 0 28 6.76541 28 13.8026C28 20.8398 22 27.6052 14 27.6052C11.7563 27.612 9.54221 27.0622 7.534 25.9999L2.046 27.9429V27.945Z" fill="white"/>
<path d="M13.5 15.8525C13.3479 15.8525 13.1974 15.8137 13.0569 15.7384C12.9164 15.663 12.7888 15.5525 12.6812 15.4132C12.5737 15.2739 12.4884 15.1086 12.4302 14.9266C12.3721 14.7446 12.3421 14.5495 12.3421 14.3525C12.3421 14.1556 12.3721 13.9605 12.4302 13.7785C12.4884 13.5965 12.5737 13.4312 12.6812 13.2919C12.7888 13.1526 12.9164 13.0421 13.0569 12.9667C13.1974 12.8913 13.3479 12.8525 13.5 12.8525C13.8071 12.8525 14.1016 13.0106 14.3188 13.2919C14.5359 13.5732 14.6579 13.9547 14.6579 14.3525C14.6579 14.7504 14.5359 15.1319 14.3188 15.4132C14.1016 15.6945 13.8071 15.8525 13.5 15.8525ZM17.8421 15.8525C17.69 15.8525 17.5395 15.8137 17.399 15.7384C17.2585 15.663 17.1309 15.5525 17.0234 15.4132C16.9158 15.2739 16.8305 15.1086 16.7724 14.9266C16.7142 14.7446 16.6842 14.5495 16.6842 14.3525C16.6842 14.1556 16.7142 13.9605 16.7724 13.7785C16.8305 13.5965 16.9158 13.4312 17.0234 13.2919C17.1309 13.1526 17.2585 13.0421 17.399 12.9667C17.5395 12.8913 17.69 12.8525 17.8421 12.8525C18.1492 12.8525 18.4437 13.0106 18.6609 13.2919C18.878 13.5732 19 13.9547 19 14.3525C19 14.7504 18.878 15.1319 18.6609 15.4132C18.4437 15.6945 18.1492 15.8525 17.8421 15.8525ZM9.15789 15.8525C9.00584 15.8525 8.85527 15.8137 8.71479 15.7384C8.57431 15.663 8.44666 15.5525 8.33914 15.4132C8.23162 15.2739 8.14633 15.1086 8.08814 14.9266C8.02995 14.7446 8 14.5495 8 14.3525C8 14.1556 8.02995 13.9605 8.08814 13.7785C8.14633 13.5965 8.23162 13.4312 8.33914 13.2919C8.44666 13.1526 8.57431 13.0421 8.71479 12.9667C8.85527 12.8913 9.00584 12.8525 9.15789 12.8525C9.46499 12.8525 9.7595 13.0106 9.97665 13.2919C10.1938 13.5732 10.3158 13.9547 10.3158 14.3525C10.3158 14.7504 10.1938 15.1319 9.97665 15.4132C9.7595 15.6945 9.46499 15.8525 9.15789 15.8525Z" fill="white"/>
</svg>
