<svg width="1256" height="667" viewBox="0 0 1256 667" fill="none" xmlns="http://www.w3.org/2000/svg">
<path d="M15.351 340.771V165.309C13.0255 144.04 21.1858 100.949 72.4304 98.7302H204.981C222.316 98.2678 257.367 108.856 258.889 154.906C260.411 200.956 260.792 470.46 260.792 599.455C260.792 615.638 271.447 650.36 314.066 659.792C356.685 669.224 419.346 663.722 445.349 659.792C464.164 656.556 502.048 639.541 503.062 597.375C504.077 555.209 504.331 221.946 504.331 60.5862C504.753 39.3181 516.888 -2.10851 562.044 2.33005H689.522C707.702 3.25479 744.825 17.1716 747.869 65.441C750.914 113.71 749.983 439.714 749.138 596.681C747.658 612.401 756.368 646.893 803.046 659.099H940.671C958.218 658.868 993.691 644.396 995.213 588.359C996.736 532.322 995.848 278.816 995.213 159.067C995.425 140.573 1006.88 102.475 1051.02 98.0367C1095.17 93.5981 1156.09 96.1873 1181.04 98.0367C1198.37 99.6549 1234.06 114.265 1238.12 159.76C1242.18 205.256 1241.08 289.681 1240.02 326.207" stroke="#264577" stroke-width="4"/>
<circle cx="15" cy="352" r="13.5" fill="white" stroke="#264577" stroke-width="3"/>
<circle cx="1241" cy="334" r="13.5" fill="white" stroke="#264577" stroke-width="3"/>
</svg>
